HIERARCHY
ROOT Hips
{
	OFFSET -3.958830 18.904000 13.208200
	CHANNELS 6 Xposition Yposition Zposition Zrotation Yrotation Xrotation 
	JOINT LHipJoint
	{
		OFFSET 0.000000 0.000000 0.000000
		CHANNELS 3 Zrotation Yrotation Xrotation
		JOINT LeftUpLeg
		{
			OFFSET 1.800000 -1.400000 0.085000
			CHANNELS 3 Zrotation Yrotation Xrotation
			JOINT LeftLeg
			{
				OFFSET 2.215000 -6.000000 0.000000
				CHANNELS 3 Zrotation Yrotation Xrotation
				JOINT LeftFoot
				{
					OFFSET 2.500000 -6.900000 0.000000
					CHANNELS 3 Zrotation Yrotation Xrotation
					JOINT LeftToeBase
					{
						OFFSET 0.200000 -0.500000 1.950000
						CHANNELS 3 Zrotation Yrotation Xrotation
						End Site
						{
							OFFSET 0.000000 0.000000 0.000000
						}
					}
				}
			}
		}
	}
	JOINT RHipJoint
	{
		OFFSET 0.000000 0.000000 0.000000
		CHANNELS 3 Zrotation Yrotation Xrotation
		JOINT RightUpLeg
		{
			OFFSET -1.800000 -1.400000 0.085000
			CHANNELS 3 Zrotation Yrotation Xrotation
			JOINT RightLeg
			{
				OFFSET -2.215000 -6.000000 0.000000
				CHANNELS 3 Zrotation Yrotation Xrotation
				JOINT RightFoot
				{
					OFFSET -2.500000 -6.900000 0.000000
					CHANNELS 3 Zrotation Yrotation Xrotation
					JOINT RightToeBase
					{
						OFFSET -0.200000 -0.500000 1.950000
						CHANNELS 3 Zrotation Yrotation Xrotation
						End Site
						{
							OFFSET 0.000000 0.000000 0.000000
						}
					}
				}
			}
		}
	}
	JOINT LowerBack
	{
		OFFSET 0.000000 0.000000 0.000000
		CHANNELS 3 Zrotation Yrotation Xrotation
		JOINT Spine
		{
			OFFSET -0.087000 1.940000 -0.288900
			CHANNELS 3 Zrotation Yrotation Xrotation
			JOINT Spine1
			{
				OFFSET 0.000000 1.950000 0.060000
				CHANNELS 3 Zrotation Yrotation Xrotation
				JOINT Neck
				{
					OFFSET 0.000000 0.000000 0.000000
					CHANNELS 3 Zrotation Yrotation Xrotation
					JOINT Neck1
					{
						OFFSET 0.000000 1.600000 0.340000
						CHANNELS 3 Zrotation Yrotation Xrotation
						JOINT Head
						{
							OFFSET 0.000000 1.667000 -0.240000
							CHANNELS 3 Zrotation Yrotation Xrotation
							End Site
							{
								OFFSET 0.000000 0.000000 0.000000
							}
						}
					}
				}
				JOINT LeftShoulder
				{
					OFFSET 0.000000 0.000000 0.000000
					CHANNELS 3 Zrotation Yrotation Xrotation
					JOINT LeftArm
					{
						OFFSET 2.700000 1.550000 -0.730000
						CHANNELS 3 Zrotation Yrotation Xrotation
						JOINT LeftForeArm
						{
							OFFSET 5.450000 0.000000 0.000000
							CHANNELS 3 Zrotation Yrotation Xrotation
							JOINT LeftHand
							{
								OFFSET 3.450000 0.000000 0.000000
								CHANNELS 3 Zrotation Yrotation Xrotation
								JOINT LeftHandIndex1
								{
									OFFSET 0.750000 0.000000 0.000000
									CHANNELS 3 Zrotation Yrotation Xrotation
									End Site
									{
										OFFSET 0.000000 0.000000 0.000000
									}
								}
							}
						}
					}
				}
				JOINT RightShoulder
				{
					OFFSET 0.000000 0.000000 0.000000
					CHANNELS 3 Zrotation Yrotation Xrotation
					JOINT RightArm
					{
						OFFSET -2.700000 1.550000 -0.730000
						CHANNELS 3 Zrotation Yrotation Xrotation
						JOINT RightForeArm
						{
							OFFSET -5.450000 0.000000 0.000000
							CHANNELS 3 Zrotation Yrotation Xrotation
							JOINT RightHand
							{
								OFFSET -3.450000 0.000000 0.000000
								CHANNELS 3 Zrotation Yrotation Xrotation
								JOINT RightHandIndex1
								{
									OFFSET -0.750000 0.000000 0.000000
									CHANNELS 3 Zrotation Yrotation Xrotation
									End Site
									{
										OFFSET 0.000000 0.000000 0.000000
									}
								}
							}
						}
					}
				}
			}
		}
	}
}
MOTION
Frames: 7
Frame Time: 0.016667
5.649220 16.771280 1.226300 -28.426013 -46.576839 9.335620 -14.756526 12.806826 2.739961 -0.883426 -1.839779 -21.386990 1.930779 5.892616 30.269769 0.057413 4.553382 2.926412 0.035920 0.029980 -0.062230 18.532818 -12.164830 2.795604 -14.030305 0.039931 14.660382 6.851813 -8.901627 20.296750 -0.721973 -6.810701 2.170187 0.075550 0.281470 0.054590 -4.187372 0.894492 -6.813515 11.335680 9.963911 6.479967 3.300320 9.118786 11.104340 2.035163 2.042662 -9.277928 1.983541 0.859186 49.681273 1.557230 1.081560 7.671990 -7.695854 -9.075600 2.410312 14.781829 -0.966317 -1.428413 72.748590 -25.751918 -13.757384 -4.020006 3.153345 -0.074980 0.224370 -0.135850 0.129680 4.387526 10.269747 5.540742 -12.113908 3.347637 -3.519103 -42.691459 34.870165 -10.051675 2.371959 -1.591352 -0.076130 0.098280 0.009100 0.046560 
5.445430 16.744980 1.359200 -29.200229 -45.221413 7.979967 -14.748863 13.151399 2.664785 0.505571 -1.601172 -19.175169 3.338001 5.798560 32.553439 0.152100 4.986057 2.779409 0.038640 0.031790 -0.055970 18.481602 -12.250476 2.622779 -15.252438 -0.147950 8.852706 6.450641 -8.389729 20.603575 -0.547880 -6.281004 2.320128 0.070410 0.278530 0.076340 -4.114300 0.513380 -6.784087 11.776537 8.820301 7.704726 2.836505 8.282845 11.872303 1.877654 2.258141 -9.466740 1.902841 1.110883 49.105971 1.237020 1.811200 8.031700 -7.064888 -10.375180 2.428383 16.984909 -5.358422 -2.095283 78.191560 -22.800483 -13.757580 -4.026750 3.173568 -0.092960 0.238750 -0.135710 0.130320 3.907767 10.777382 5.847098 -12.182171 2.484999 -3.457699 -37.772849 32.393997 -8.037531 2.384952 -1.633367 -0.059890 0.066600 0.001000 0.047890 
5.272330 16.780810 1.447180 -28.647288 -43.428814 5.418338 -14.833673 13.520034 2.653335 1.584024 -1.548962 -17.351679 4.381478 5.766316 34.825712 0.262853 5.415169 2.627757 0.058000 0.061860 -0.050720 18.350002 -12.142389 2.515462 -15.992765 -0.323050 4.013420 7.011115 -8.127880 20.508607 -0.423111 -5.811310 2.452113 0.073350 0.258080 0.073170 -3.736274 -0.239651 -6.877843 9.991049 7.342594 10.062745 3.072942 7.202620 12.845706 1.436250 2.417332 -9.913020 1.500100 1.314245 50.577976 1.968640 1.840130 8.285010 -6.376689 -11.893083 2.574445 18.976320 -9.628084 -3.142442 83.343162 -19.864198 -13.497645 -3.989936 3.171845 -0.087170 0.219180 -0.113570 0.143530 4.089796 11.828395 6.323814 -11.732498 1.988244 -3.715575 -34.933680 30.540883 -6.998248 2.399275 -1.633514 -0.042980 0.054410 -0.022370 0.057010 
5.198410 16.843850 1.507160 -27.961874 -41.643140 2.252131 -14.896469 13.885828 2.713636 2.767940 -1.653560 -15.458132 4.104111 6.154809 36.570547 0.358802 5.843960 2.469695 0.088530 0.106190 -0.016280 18.229470 -11.962966 2.443152 -17.179212 -0.385580 -1.696485 7.131133 -7.451078 19.157732 -0.283013 -5.128713 2.639146 0.081620 0.220320 0.074050 -3.412557 -1.112662 -7.073940 9.106747 5.354277 14.495916 2.625452 5.914858 14.268971 1.175563 2.360118 -10.576903 0.717659 2.233212 52.530755 2.375760 2.986810 7.513260 -5.810555 -13.720251 2.886670 19.612336 -13.669202 -4.697923 88.820951 -16.729272 -13.215426 -3.966071 3.145529 -0.056150 0.189610 -0.063880 0.146290 3.820725 13.307551 6.930303 -10.713967 2.711042 -4.416334 -33.574084 26.939283 -6.215669 2.420473 -1.609269 -0.027040 0.057470 -0.043380 0.050800 
5.079380 16.923580 1.541040 -27.902595 -41.931862 -0.641695 -14.943262 14.206911 2.755891 5.573080 -1.401956 -14.375849 1.912503 7.692594 38.118493 0.430097 6.456407 2.235206 0.142130 0.180330 0.019910 18.148723 -11.800643 2.332758 -17.182516 -0.162460 -7.711502 5.775559 -6.544395 19.632070 -0.154944 -4.465453 2.812223 0.127910 0.198350 0.073540 -3.170138 -1.856111 -7.162725 7.763506 3.868935 19.241822 2.166890 5.011894 15.642145 0.530745 1.355842 -10.386928 -1.756216 4.339048 52.994388 2.780590 4.654540 5.688340 -5.013476 -13.936331 2.731298 20.438164 -16.347947 -5.618381 92.785706 -17.383003 -15.358235 -3.962666 3.097403 -0.032930 0.173290 -0.035180 0.149060 3.954066 14.132853 6.626785 -10.412783 5.375689 -5.015546 -32.803308 25.142767 -5.950073 2.407631 -1.593845 -0.021870 0.075070 -0.056410 0.039030 
4.988490 16.984390 1.588670 -28.147427 -42.453581 -3.338213 -14.932083 14.299345 2.856566 7.124823 -1.779046 -14.465984 1.700425 8.777115 42.547004 0.577936 7.397845 1.905949 0.169180 0.222210 0.014860 18.166696 -11.625027 2.338365 -16.074249 0.028858 -13.808341 3.530468 -5.136935 18.026059 -0.016447 -3.628765 3.071524 0.163930 0.211270 0.067380 -3.272126 -2.222931 -7.244869 7.911213 1.886817 24.132668 0.302525 3.691006 16.751955 -0.336851 -0.450441 -10.259232 -6.011198 6.782148 53.037199 3.305090 5.462570 4.803900 -3.805746 -14.003621 2.574455 21.176533 -18.596329 -6.596820 95.080375 -18.390702 -17.565911 -3.971493 3.051041 -0.027220 0.170800 -0.038930 0.156690 4.009225 15.004027 6.317085 -10.276675 8.581331 -5.297727 -30.930321 22.680860 -5.285180 2.413228 -1.581759 -0.027590 0.100700 -0.049590 0.041630 
4.886210 17.025160 1.648830 -28.627652 -41.884684 -6.385118 -14.924338 14.255591 2.819043 9.050264 -1.938745 -13.316873 1.795633 9.812654 46.742236 0.698707 8.334096 1.592141 0.225740 0.285760 0.053600 18.208727 -11.407754 2.507866 -15.233645 0.547844 -19.374809 3.679195 -4.660189 17.453158 0.038467 -3.167190 3.188126 0.231170 0.202010 0.048670 -3.458228 -2.290672 -7.306634 8.698554 0.395255 29.072202 -1.283911 2.746621 18.437625 -1.070491 -1.007203 -9.803747 -7.733928 7.258257 52.721849 3.672640 5.546200 2.676880 -2.526645 -14.125604 1.894512 23.212919 -23.397508 -8.148410 94.926768 -19.927231 -19.657706 -3.971904 2.974574 0.004700 0.156070 -0.032810 0.158980 3.801357 14.763618 6.108677 -9.093968 9.773434 -5.387724 -30.321364 20.722828 -5.017207 2.401764 -1.583302 -0.053550 0.145670 -0.058330 0.020010 
